HIERARCHY
ROOT Hips
{
	OFFSET	0.00	0.00	0.00
	CHANNELS 6 Xposition Yposition Zposition Zrotation Yrotation Xrotation
	JOINT Spine
	{
		OFFSET	 0.00	0.1	 0.00
		CHANNELS 3 Zrotation Yrotation Xrotation
		JOINT Spine1
		{
			OFFSET	 0.00	 24.5913012437421	 0.00
			CHANNELS 3 Zrotation Yrotation Xrotation
            JOINT Neck
            {
                OFFSET	 0.00	 24.8462964506057	 0.00
                CHANNELS 3 Zrotation Yrotation Xrotation
                JOINT Head
                {
                    OFFSET	 0.00	 9.27524780924562	 0.00
                    CHANNELS 3 Zrotation Yrotation Xrotation
                    End Site
                    {
                        OFFSET	 0.00	 11.4999962169752	 0.00
                    }
                }
            }
			JOINT LeftShoulder
			{
				OFFSET	 0.00	 24.8462964506057	 0.00
				CHANNELS 3 Zrotation Yrotation Xrotation
				JOINT LeftUpArm
				{
					OFFSET	 0.00	 12.4881979654096	 0.00
					CHANNELS 3 Zrotation Yrotation Xrotation
					JOINT LeftForeArm
					{
						OFFSET	 0.00	25.9758046908119	 0.00
						CHANNELS 3 Zrotation Yrotation Xrotation
						JOINT LeftHand
						{
							OFFSET	 0.00	24.5542024364365	 0.00
							CHANNELS 3 Zrotation Yrotation Xrotation
							JOINT LeftHandThumb
							{
								OFFSET	 0.00	0.00	 0.00
								CHANNELS 3 Zrotation Yrotation Xrotation
								End Site
								{
									OFFSET	 0.00	0.00	10.0000003353624
								}
							}
							JOINT L_Wrist_End
							{
								OFFSET	 0.00	9.9999967115358	 0.00
								CHANNELS 3 Zrotation Yrotation Xrotation
								End Site
								{
									OFFSET	 0.00	 0.00	 0.00
								}
							}
						}
					}
				}
			}
			JOINT RightShoulder
			{
				OFFSET	 0.00	 24.8462964506057	 0.00
				CHANNELS 3 Zrotation Yrotation Xrotation
				JOINT RightUpArm
				{
					OFFSET	 0.00	 12.4881979654096	 0.00
					CHANNELS 3 Zrotation Yrotation Xrotation
					JOINT RightForeArm
					{
						OFFSET	 0.00	25.9758046908119	 0.00
						CHANNELS 3 Zrotation Yrotation Xrotation
						JOINT RightHand
						{
							OFFSET	 0.00	24.5542024364365	 0.00
							CHANNELS 3 Zrotation Yrotation Xrotation
							JOINT RightHandThumb
							{
								OFFSET	 0.00	0.00	 0.00
								CHANNELS 3 Zrotation Yrotation Xrotation
								End Site
								{
									OFFSET	 0.00	0.00	10.0000003353624
								}
							}
							JOINT R_Wrist_End
							{
								OFFSET	 0.00	9.9999967115358	 0.00
								CHANNELS 3 Zrotation Yrotation Xrotation
								End Site
								{
									OFFSET	 0.00	 0.00	 0.00
								}
							}
						}
					}
				}
			}
		}
	}
	JOINT LeftUpLeg
	{
		OFFSET	 12.719394002717	 0.00	 0.00
		CHANNELS 3 Zrotation Yrotation Xrotation
		JOINT LeftLowLeg
		{
			OFFSET	 0.00	-43.429100912261	 0.00
			CHANNELS 3 Zrotation Yrotation Xrotation
			JOINT LeftFoot
			{
				OFFSET	 0.00	-44.8767017425826	 0.00
				CHANNELS 3 Zrotation Yrotation Xrotation
				JOINT LeftToeBase
                {
                    OFFSET	 0.00	0.00	 15.1507020887566
                    CHANNELS 3 Zrotation Yrotation Xrotation
                    End Site
                    {
                        OFFSET	 0.00	0.00	 7.5000010571191
                    }
                }
			}
		}
	}
	JOINT RightUpLeg
	{
		OFFSET	 -12.719393604653	 0.00	 0.00
		CHANNELS 3 Zrotation Yrotation Xrotation
		JOINT RightLowLeg
		{
			OFFSET	 0.00	-43.429100912261	 0.00
			CHANNELS 3 Zrotation Yrotation Xrotation
			JOINT RightFoot
			{
				OFFSET	 0.00	-44.8767017425826	 0.00
				CHANNELS 3 Zrotation Yrotation Xrotation
				JOINT RightToeBase
                {
                    OFFSET	 0.00	0.00	 15.1507020887566
                    CHANNELS 3 Zrotation Yrotation Xrotation
                    End Site 
                    {
                        OFFSET	 0.00	0.00	 7.49999965609858
                    }
                }   
			}
		}
	}
}
MOTION 
Frames:	8 
Frame Time: 0.04 
 -2.836190032958984 92.98289794921875 -51.64509887695313 -2.2616186311166473 -2.5677977113994843 9.522730318664003 -1.0031715599015052 -0.1098730595861779 -10.562820052156965 6.155086631013918 0.268066077874426 -9.061759827333027 -10.507130991124622 -0.3153755636372653 55.79327664577442 18.461249922106653 11.188873125922155 -89.02774538585415 -111.9616535457354 -11.822245193386998 -9.540678021406972 4.981841816810833 -28.57248417612897 12.932742684604996 0.0 0.0 7.79773998260498 18.68272615621418 21.949953345569075 -12.081887268298656 0.0 0.0 0.0 0.0 0.0 0.0 109.9208526294226 2.453925588182609 -6.337255147467841 -6.373464777600822 51.279567484121905 1.749123658640123 0.0 0.0 14.464799880981444 -11.446657130135618 -45.145111775492175 -12.623540935801307 0.0 0.0 0.0 0.0 0.0 0.0 0.7716540248151506 2.3029768988962607 -6.692469990167028 0.0 0.0 6.2800798416137695 -15.009817674561575 9.26212490928814 -0.1597827857789018 0.0 0.0 -26.6864013671875 6.9747360796602935 6.861602945241989 -4.811925166305108 0.0 0.0 8.529789924621582 9.896239985276564 -20.443676465536573 1.9008641777899977 0.0 0.0 -31.350500106811527 
  -2.88848991394043 92.99530029296875 -51.6968994140625 -2.2519062202756315 -2.7121503662267368 9.395460347431627 -0.9318939203104173 -0.045406734022237966 -10.528603083051074 6.114970285032714 0.30405825049094176 -8.915786471987047 -10.572098252775069 -0.06472266701453226 56.09485343240625 18.475614346771696 11.104348050340153 -88.9549426908632 -111.9800061618843 -11.655155188894277 -9.580246397273012 5.100826021186093 -28.61990140720844 12.857197300217118 0.0 0.0 7.818900108337402 18.824682574670632 21.66677462056892 -12.02106849095451 0.0 0.0 0.0 0.0 0.0 0.0 109.81233643198264 2.554447736169948 -6.312157772760893 -6.23753212058107 50.92902388369861 1.8601880394573185 0.0 0.0 14.529399871826172 -11.621949606252272 -44.916384388078995 -12.665040660616553 0.0 0.0 0.0 0.0 0.0 0.0 0.7802083626823165 2.383973299669396 -6.591890708765221 0.0 0.0 6.304590225219727 -15.022354401664778 9.331677450329593 -0.1279937015033724 0.0 0.0 -26.677499771118164 6.9825349055420585 6.91435055833798 -4.751233166753091 0.0 0.0 8.581419944763184 9.930269973951008 -20.36264346848939 1.9614145798736384 0.0 0.0 -31.382999420166016 
  -2.930629920959473 93.01010131835938 -51.80540161132812 -2.2551151496186472 -2.8953714996079687 9.220472076810616 -0.804795334930105 0.032361964662561096 -10.264302001401147 5.993074911825212 0.35261251644620606 -8.950431051945168 -10.60189821077946 0.1407030809916393 56.36605864680968 18.445165854240628 11.038148826138677 -88.81867797698331 -111.90668353733764 -11.712353584703886 -9.707657538487586 4.986138801970777 -28.79739490254555 12.967347290896258 0.0 0.0 7.866660118103027 18.74874139763733 21.75362312079469 -11.990849021899615 0.0 0.0 0.0 0.0 0.0 0.0 109.86169471261663 2.295650444798254 -6.165207291634807 -6.311515361476488 51.156098440878 1.746415106283489 0.0 0.0 14.614299774169922 -11.541587515482112 -44.749361178411846 -12.587313603186782 0.0 0.0 0.0 0.0 0.0 0.0 0.782639011346228 2.5942513728059886 -6.48990004271746 0.0 0.0 6.358990192413329 -15.030369059045855 9.335610859287264 -0.08056730619962876 0.0 0.0 -26.646699905395504 6.993034287617639 6.918554777663237 -4.747387050322599 0.0 0.0 8.767629623413086 9.991357106872464 -20.195768121859643 2.010238097846481 0.0 0.0 -31.268299102783207 
  -2.9651199340820313 93.03670043945313 -51.9531982421875 -2.2889200702947208 -2.9648759923588313 9.160630283956504 -0.6548696901895802 0.11130408097382737 -10.091219115264737 5.84197009317274 0.394427993375519 -8.933233043876088 -10.575144232258712 0.32972159468013634 56.66424214297927 18.528623158806152 11.027624770155663 -88.656971410233 -111.79849585760282 -11.914991255172492 -9.661006273516156 4.894174055078617 -28.532681729271875 12.914830957448483 0.0 0.0 8.044480323791504 18.68569172691164 21.6945172569049 -11.988871055212154 0.0 0.0 0.0 0.0 0.0 0.0 109.83745174099434 2.417834453171703 -6.192224033873072 -6.066315096818193 51.11451057210754 1.8810171468407815 0.0 0.0 14.676300048828123 -11.480627693160152 -44.36767890472847 -12.514648859148245 0.0 0.0 0.0 0.0 0.0 0.0 0.8371613860350995 2.581467713106126 -6.552809136809596 0.0 0.0 6.434810161590576 -15.060285529005194 9.437818854861353 -0.0334528048646058 0.0 0.0 -26.668100357055664 7.0164116396682825 6.8114218823038115 -4.885082513194823 0.0 0.0 8.942239761352539 10.210026464779299 -19.97600796577378 2.136175526378642 0.0 0.0 -31.298700332641598 
  -2.98085994720459 93.08770141601562 -52.11939697265625 -2.330723329531806 -3.1001852255434543 9.079785664915729 -0.6027205553266538 0.1824204620097043 -9.896690489246154 5.884040855133682 0.44783778535516394 -8.876313790689796 -10.57266506593812 0.49674781842213134 56.91650556023968 18.545823742951246 10.967804293524752 -88.46061490023871 -111.86630162718076 -11.646668847727392 -9.639103170262715 4.756007776828925 -28.856087296005416 12.898280246571694 0.0 0.0 8.089690208435057 18.84448436540138 21.507216082798635 -11.813799698204775 0.0 0.0 0.0 0.0 0.0 0.0 109.83167703050567 2.3304892278839135 -6.156791953870238 -5.905926774549786 51.07927646556312 2.0268395480101686 0.0 0.0 14.605500221252443 -11.667194101624064 -44.51867427421491 -12.347488210357414 0.0 0.0 0.0 0.0 0.0 0.0 0.868556233377578 2.8319964396187554 -6.624516916968014 0.0 0.0 6.548530101776124 -15.061536220173958 9.372213386832648 0.13794116044730803 0.0 0.0 -26.717599868774414 7.012457501737927 6.290279007335122 -5.15410331664355 0.0 0.0 9.383729934692385 10.451395500731412 -19.222149761168538 2.3230783051405677 0.0 0.0 -30.987998962402347 
  -2.9434499740600586 93.152001953125 -52.39990234375 -2.419225742697091 -3.2784933265834586 8.9723387656076 -0.3986481890085717 0.30883331031371547 -9.443408168569643 5.718432912101112 0.536479041761905 -9.02065858297834 -10.542147821406251 -0.0075731849706617855 57.19170075806717 18.431782734672513 10.929525820298359 -88.02900290670324 -111.64768698884886 -11.649854144007191 -9.652996262285797 4.386003134864996 -28.766577028375746 12.964711608401146 0.0 0.0 8.247309684753418 18.722482989003232 21.439899006763472 -11.784341768533647 0.0 0.0 0.0 0.0 0.0 0.0 109.8072776357749 2.0344840377012225 -6.08182822435305 -5.718363459998605 51.07437561176511 2.015240703524193 0.0 0.0 14.484700202941893 -11.725674087525821 -44.31534480758923 -12.12776076939568 0.0 0.0 0.0 0.0 0.0 0.0 0.8988421653067268 3.201979865543498 -6.833348665519051 0.0 0.0 6.841710090637207 -15.007818337681563 9.249871897717522 0.3153001163112858 0.0 0.0 -26.739500045776367 7.007568130622839 6.146254052089505 -5.398824813444333 0.0 0.0 9.68535041809082 10.712633091641429 -18.80218157408255 2.5714028960195146 0.0 0.0 -30.761400222778324 
  -2.880299949645996 93.19860229492187 -52.718701171875 -2.492731942846974 -3.4854056004202127 8.714668244952392 -0.25385365126331216 0.4189604925186341 -8.87914936124219 5.58514043364635 0.6197738325291239 -9.081045912115723 -10.429755828008842 0.09016793038784564 57.75661272143599 18.553027896112486 10.955027558078518 -87.57973796693425 -111.55453697190332 -11.426808482766777 -9.673520435153343 3.9364449582201573 -29.33796521838911 13.240632161868765 0.0 0.0 8.415969848632812 18.76955667022714 21.564217713063023 -11.540612117488683 0.0 0.0 0.0 0.0 0.0 0.0 109.7096852045377 1.9514570454425095 -5.946311181346709 -5.312655507456435 51.235649883757716 2.1255961420481793 0.0 0.0 14.562399864196777 -11.462378178400709 -43.892373799561646 -12.320392120914697 0.0 0.0 0.0 0.0 0.0 0.0 0.9097167062121851 3.47930333082241 -6.834176619592327 0.0 0.0 6.988349914550781 -14.934884198250474 9.249717483436486 0.4747738201139394 0.0 0.0 -26.75709915161133 7.013492441968523 5.936556617112523 -5.436694143382641 0.0 0.0 9.846710205078127 10.820451956379841 -18.409218227714927 2.8179139267034388 0.0 0.0 -30.64299964904785 
  -2.7778600692749023 93.24000244140625 -53.07490234375 -2.5655178922596544 -3.6329273063152767 8.401732429599994 -0.14966241556869325 0.5179273351422625 -8.401185528357239 5.4529706244244665 0.6915015644097091 -8.956287946759941 -10.330288980053913 0.07647182971033048 58.64678557167898 18.586735762629075 11.019119624050226 -87.06944516830335 -111.43915067231394 -11.195133826516848 -9.589658882056739 3.6307224093716064 -29.14056708409053 13.237129725320438 0.0 0.0 9.28849983215332 18.899154311676888 20.998772700221906 -11.367069999797021 0.0 0.0 0.0 0.0 0.0 0.0 109.72330134189008 1.6649670598190405 -5.960205660513151 -4.788579720736963 51.39698250973005 2.4868023319186197 0.0 0.0 14.57460021972656 -11.741651251910527 -43.21024409058154 -11.876353235633422 0.0 0.0 0.0 0.0 0.0 0.0 0.9060489181132122 3.829777888824109 -6.786525934534698 0.0 0.0 7.092410087585448 -14.83809825704608 9.116386389838057 0.686674564202141 0.0 0.0 -26.85610008239746 7.013837646291567 5.4596798752104005 -5.5122339001484635 0.0 0.0 10.127099990844727 10.900101595582147 -17.847081158926166 3.0826784357713204 0.0 0.0 -30.775400161743157 
